# xmcd CD database file
#
# Track frame offsets:
#	150
#	15877
#	47431
#	85361
#	128392
#	154516
#	166235
#	210474
#
# Disc length: 3242 seconds
#
# Revision: 0
# Processed by: cddbd v1.5.2PL0 Copyright (c) Steve Scherf et al.
# Submitted via: CDex 1.70beta2
#
DISCID=4b0ca808
DTITLE=Winter,Johnny - Boston Music Hall 1977 (w. James Cotton and Muddy Waters)
DYEAR=1977
DGENRE=Blues
TTITLE0=The Blues Had A Baby And They Named It Rock 'N' Roll
TTITLE1=Deep Down In Florida
TTITLE2=Hideaway
TTITLE3=You've Got To Love Her With A Feeling
TTITLE4=Sweet Home Chicago
TTITLE5=Rocket 88
TTITLE6=Help Me
TTITLE7=How Long?
EXTD=YEAR: 1977
EXTT0=
EXTT1=
EXTT2=
EXTT3=
EXTT4=
EXTT5=
EXTT6=
EXTT7=
PLAYORDER=
